/* XPM */
static char *result[] = {
/* columns rows colors chars-per-pixel */
"64 64 148 2 ",
"   c #5B423B",
".  c #67483B",
"X  c #6B4B3B",
"o  c #63463B",
"O  c #744C36",
"+  c #784F37",
"@  c #724E3A",
"#  c #7A5037",
"$  c #7C5139",
"%  c #634A40",
"&  c #715040",
"*  c #715648",
"=  c #82553A",
"-  c #85583C",
";  c #8B5B3B",
":  c #925E3C",
">  c #94603C",
",  c #9D653D",
"<  c #9A6B3F",
"1  c #A0663D",
"2  c #A06D3F",
"3  c #B8623F",
"4  c #A4703F",
"5  c #A9723F",
"6  c #C27D3D",
"7  c #A12643",
"8  c #865C41",
"9  c #8B5E41",
"0  c #AB5B41",
"q  c #B25240",
"w  c #8B6145",
"e  c #8E664A",
"r  c #8F694F",
"t  c #956646",
"y  c #9B6E43",
"u  c #9C6F4B",
"i  c #9E7045",
"p  c #9D704E",
"a  c #8B6D57",
"s  c #8C6C5C",
"d  c #9D6F50",
"f  c #98765C",
"g  c #9E7C5E",
"h  c #92735A",
"j  c #A77240",
"k  c #AD7540",
"l  c #A0794F",
"z  c #AE7A49",
"x  c #B07740",
"c  c #A47C55",
"v  c #A97C56",
"b  c #B95F61",
"n  c #A07F6C",
"m  c #BE7561",
"M  c #DEC637",
"N  c #DFC638",
"B  c #AC8053",
"V  c #AF835A",
"C  c #B1875C",
"Z  c #B88B5A",
"A  c #97817A",
"S  c #A4846D",
"D  c #AC8C6D",
"F  c #A98D64",
"G  c #AD936C",
"H  c #BE9060",
"J  c #B6996C",
"K  c #A58775",
"L  c #A58B71",
"P  c #AF9075",
"I  c #AD967C",
"U  c #CFBF52",
"Y  c #C2A074",
"T  c #CBA376",
"R  c #CFAA7E",
"E  c #D1AB7F",
"W  c #DDC645",
"Q  c #DAC060",
"!  c #E1C261",
"~  c #E2C270",
"^  c #E2C07D",
"/  c #867E85",
"(  c #7B95C1",
")  c #888189",
"_  c #918B91",
"`  c #B9AB85",
"'  c #B5A38A",
"]  c #B9AA8F",
"[  c #B9B48B",
"{  c #B6A995",
"}  c #BDAE95",
"|  c #BFB992",
" . c #BBB29A",
".. c #808FAF",
"X. c #8E99B1",
"o. c #8898B9",
"O. c #9EAAAB",
"+. c #96A7BA",
"@. c #A4AEA1",
"#. c #A3A1A9",
"$. c #A6ADBC",
"%. c #D39B80",
"&. c #D2AC80",
"*. c #D4B083",
"=. c #D7B288",
"-. c #DEBA8C",
";. c #C0AE90",
":. c #C3B296",
">. c #C2B59B",
",. c #C6BC9C",
"<. c #C1BD95",
"1. c #E3BF93",
"2. c #C8C59D",
"3. c #E3C089",
"4. c #C6C7A1",
"5. c #CDC5A0",
"6. c #C7CAA4",
"7. c #C8C9A5",
"8. c #CBC4AB",
"9. c #C9C9AC",
"0. c #D1C9A1",
"q. c #CFD4A1",
"w. c #CDD5AC",
"e. c #D0CFB1",
"r. c #CDD6B0",
"t. c #D2D3B7",
"y. c #D1D9B6",
"u. c #D6D3BA",
"i. c #D5DCBB",
"p. c #D8DDBE",
"a. c #849CC3",
"s. c #8A9FC4",
"d. c #8EA3C5",
"f. c #91A5C5",
"g. c #96A9C6",
"h. c #99ABC6",
"j. c #9BACC8",
"k. c #A4B3CB",
"l. c #ABB7CC",
"z. c #AEBACD",
"x. c #CDD5CA",
"c. c #DADCC2",
"v. c #D6DCCB",
"b. c #DBE1C5",
"n. c #DFE3CA",
"m. c #E0E4CC",
"M. c #E5E8CF",
"N. c None",
/* pixels */
"N.N.N.N.N.N.N.N.N.N.N.N.N.N.N.N.N.N.N.N.N.N.N.N.N.N.N.N.N.N.N.N.N.N.N.N.N.N.N.N.N.N.N.N.N.N.N.N.N.N.N.N.N.N.N.N.N.N.N.N.N.N.N.N.",
"N.N.N.N.N.N.N.N.N.N.N.N.N.N.N.N.N.N.N.N.N.N.N.N.N.N.N.N.N.N.N.N.N.N.N.N.N.N.N.N.N.N.N.N.N.N.N.N.N.N.N.N.N.N.N.N.N.N.N.N.N.N.N.N.",
"N.N.N.N.N.N.N.N.N.N.N.N.N.N.N.N.N.N.N.N.N.N.N.N.N.N.N.N.N.N.N.N.N.N.N.N.N.N.N.N.N.N.N.N.N.N.N.N.N.N.N.N.N.N.N.N.N.N.N.N.N.N.N.N.",
"N.N.N.N.N.N.N.N.N.N.N.N.N.N.N.N.N.N.N.N.N.N.N.N.N.N.N.N.N.N.N.N.N.N.N.N.N.N.N.N.N.N.N.N.N.N.N.N.N.N.N.N.N.N.N.N.N.N.N.N.N.N.N.N.",
"N.N.N.N.N.N.N.N.N.N.N.N.N.N.N.N.N.N.N.N.N.N.N.N.N.N.N.N.N.N.N.N.N.N.N.N.N.N.N.N.N.N.N.N.N.N.N.N.N.N.N.N.N.N.N.N.N.N.N.N.N.N.N.N.",
"N.N.N.N.N.N.N.N.N.N.N.N.N.N.N.N.N.N.N.N.N.N.N.N.N.N.N.N.N.N.N.N.N.N.N.N.N.N.N.N.N.N.N.N.N.N.N.N.N.N.N.N.N.N.N.N.N.N.N.N.N.N.N.N.",
"N.N.N.N.N.N.N.N.N.N.N.N.N.N.N.N.N.N.N.N.N.N.N.N.N.N.N.N.N.N.N.N.N.N.N.N.N.N.N.N.N.N.N.N.N.N.N.N.N.N.N.N.N.N.N.N.N.N.N.N.N.N.N.N.",
"N.N.N.N.N.N.N.N.N.N.N.N.N.N.N.N.N.N.N.N.N.N.N.N.N.N.N.N.N.N.N.N.N.N.N.N.N.N.N.N.N.N.N.N.N.N.N.N.N.N.N.N.N.N.N.N.N.N.N.N.N.N.N.N.",
"N.N.N.N.N.N.N.N.N.N.N.N.N.N.N.N.N.N.N.N.N.N.N.N.N.N.N.N.N.N.N.N.N.N.N.N.N.N.N.N.N.N.N.N.N.N.N.N.N.N.N.N.N.N.N.N.N.N.N.N.N.N.N.N.",
"N.N.N.N.N.N.N.N.N.N.N.N.N.N.N.N.N.N.N.N.N.N.N.N.N.N.N.N.N.N.N.N.N.N.N.N.N.N.N.N.N.N.N.N.N.N.N.N.N.N.N.N.N.N.N.N.N.N.N.N.N.N.N.N.",
"N.N.N.N.N.N.N.N.N.N.N.N.N.N.N.N.N.N.N.N.N.N.N.N.N.N.N.N.N.N.N.N.N.N.N.N.N.N.N.N.N.N.N.N.N.N.N.N.N.N.N.N.N.N.N.N.N.N.N.N.N.N.N.N.",
"N.N.N.N.N.N.N.N.N.N.N.N.N.N.N.N.N.N.N.N.N.N.N.N.N.N.N.N.N.N.N.N.N.N.N.N.N.N.N.N.N.N.N.N.N.N.N.N.N.N.N.N.N.N.N.N.N.N.N.N.N.N.N.N.",
"N.N.N.N.N.N.N.N.N.N.N.N.N.N.N.N.N.N.N.N.N.N.N.N.N.N.N.N.= = = = = = = N.N.N.N.N.N.N.N.N.N.N.N.N.N.N.N.N.N.N.N.N.N.N.N.N.N.N.N.N.",
"N.N.N.N.N.N.N.N.N.N.N.N.N.N.N.N.N.N.N.N.N.N.N.N.N.N.N., > > > > > ; = = N.N.N.N.N.N.N.N.N.N.N.N.N.N.N.N.N.N.N.N.N.N.N.N.N.N.N.N.",
"N.N.N.N.N.N.N.N.N.N.N.N.N.N.N.N.N.N.N.N.N.N.N.N.N.N.N.> > > > > > ; = = N.N.N.N.N.N.N.N.N.N.N.N.N.N.N.N.N.N.N.N.N.N.N.N.N.N.N.N.",
"N.N.N.N.N.N.N.N.N.N.N.N.N.N.N.N.N.N.N.N.N.N.N.N.N.N.N.= w w w w w - = = N.N.N.N.N.N.N.N.N.N.N.N.N.N.N.N.N.N.N.N.N.N.N.N.N.N.N.N.",
"N.N.N.N.N.N.N.N.N.N.N.N.N.N.N.N.N.N.N.N.N.N.N.N.N.N.N.N.T &.=.=.T z : = , N.N.N.N.N.N.N.N.N.N.N.N.N.N.N.N.N.N.N.N.N.N.N.N.N.N.N.",
"N.N.N.N.N.N.N.N.N.N.N.N.N.N.N.N.N.N.N.N.N.N.N.N.N.N.N.* T -.-.R f t > - , N.N.N.N.N.N.N.N.N.N.N.N.N.N.N.N.N.N.N.N.N.N.N.N.N.N.N.",
"N.N.N.N.N.N.N.N.N.N.N.N.N.N.N.N.N.N.N.N.N.N.N.N.N.N.N.& g D D g % - > = : > N.N.N.N.N.N.N.N.N.N.N.N.N.N.N.N.N.N.N.N.N.N.N.N.N.N.",
"N.N.N.N.N.N.N.N.N.N.N.N.N.N.N.N.N.N.N.N.N.N.N.N.N.N.N.$ o         - > = = > 1 N.N.N.N.N.N.N.N.N.N.N.N.N.N.N.N.N.N.N.N.N.N.N.N.N.",
"N.N.N.N.N.N.N.N.N.N.N.N.N.N.N.N.N.N.N.N.N.N.N.N.N.N.N.- $ .       - > = = t , N.N.N.N.N.N.N.N.N.N.N.N.N.N.N.N.N.N.N.N.N.N.N.N.N.",
"N.N.N.N.N.N.N.N.N.N.N.N.N.N.N.N.N.N.N.N.N.N.N.N.N.N.N.N.- .   o $ 9 g ' 8 ; ; N.N.N.N.N.N.N.N.N.N.N.N.N.N.N.N.N.N.N.N.N.N.N.N.N.",
"N.N.N.N.N.N.N.N.N.N.N.N.N.N.N.N.N.N.N.N.N.N.N.N.N.N.N.N.8 @ X $ : - L c.I L L N.N.N.N.N.N.N.N.N.N.N.N.N.N.N.N.N.N.N.N.N.N.N.N.N.",
"N.N.N.N.N.N.N.N.N.N.N.N.N.N.N.N.N.N.N.N.N.N.N.N.N.N.N.u.f 8 ; > - 9 I m.m.m.m.N.N.N.N.N.N.N.N.N.N.N.N.N.N.N.N.N.N.N.N.N.N.N.N.N.",
"N.N.N.N.N.N.N.N.N.N.N.N.N.N.N.N.N.N.N.N.N.N.N.N.N.M.M.m.c.S $ = = ' c.m.m.m.m.m.m.N.N.N.N.N.N.N.N.N.N.N.N.N.N.N.N.N.N.N.N.N.N.N.",
"N.N.N.N.N.N.N.N.N.N.N.N.N.N.N.N.N.N.N.N.N.N.N.N.N.M.M.M.n.L = w ' t.m.m.m.m.m.m.m.m.N.N.N.N.N.N.N.N.N.N.N.N.N.N.N.N.N.N.N.N.N.N.",
"N.N.N.N.N.N.N.N.N.N.N.N.N.N.N.N.N.N.N.N.N.N.N.N.N.M.M.M.n.} L I c.n.m.M.m.m.m.v.,.>.:.N.N.N.N.N.N.N.N.N.N.N.N.N.N.N.N.N.N.N.N.N.",
"N.N.N.N.N.N.N.N.N.N.N.N.N.N.N.N.N.N.N.N.N.N.N.N.N.M.m.M.M.m.n.m.n.n.m.M.M.M.c.8.c d c N.N.N.N.N.N.N.N.N.N.N.N.N.N.N.N.N.N.N.N.N.",
"N.N.N.N.N.N.N.N.N.N.N.N.N.N.N.N.N.N.N.N.N.N.N.N.N.y.p.M.M.m.m.m.m.M.M.m.u.c. .a 8.u.c.m.N.N.N.N.N.N.N.N.N.N.N.N.N.N.N.N.N.N.N.N.",
"N.N.N.N.N.N.N.N.N.N.N.N.N.N.N.N.N.N.N.N.N.N.N.N.r.i.p.i.i.b.m.n.i.i.i.i.c.p.9. .y.i.c.m.N.N.N.N.N.N.N.N.N.N.N.N.N.N.N.N.N.N.N.N.",
"N.N.N.N.N.N.N.N.N.N.N.N.N.N.N.N.N.N.N.N.N.N.N.N.r.i.c.i.i.b.m.n.i.i.i.i.p.i.i.m.i.i.c.n.N.N.N.N.N.N.N.N.N.N.N.N.N.N.N.N.N.N.N.N.",
"N.N.N.N.N.N.N.N.N.N.N.N.N.N.N.N.N.N.N.N.N.N.N.N.w.r.y.n.m.m.n.m.m.m.n.b.y.N.N.m.n.m.m.m.m.N.N.N.N.N.N.N N.N.N.N.N.N.N.N.N.N.N.N.",
"N.N.N.N.N.N.N.N.N.N.N.N.N.N.N.N.N.N.N.N.N.N.N.p 6.r.y.y.n.n.m.m.m.m.c.y.N.N.N.N.m.m.m.m.m.N.N.N.N.N N N.N N.N.N.N.N.N.N.N.N.N.N.",
"N.N.N.N.N.N.N.N.N.N.N.N.N.N.N.N.N.N.N.N.N.N.N.y F <.w.N.n.m.m.m.m.c.y.w.N.N.N.N.i.i.2.Y Y Z N.N.N.3 6 N N.N.N.N.N.N.N.N.N.N.N.N.",
"N.N.N.N.N.N.N.N.N.N.N.N.N.N.N.N.N.N.N.N.N.N.N.< < G ` N.m.m.m.m.b.,.` ` N.N.N.N.r.<.J x 5 x x N.N.7 q N N.N.N.N.N.N.N.N.N.N.N.N.",
"N.N.N.N.N.N.N.N.N.N.N.N.N.N.N.N.N.N.N.N.N.N.N.< < < < N.u.u.u.u.6.G p u N.N.N.N.N.< 2 k x x x N.7 7 7 N.N.N.N.N.N.N.N.N.N.N.N.N.",
"N.N.N.N.N.N.N.N.N.N.N.N.N.N.N.N.N.N.N.N.N.N.N.< < < < N.l d d d u ;.e.4.N.N.N.N.N.< < < k x 0 7 7 N.N.N.N.N.N.N.N.N.N.N.N.N.N.N.",
"N.N.N.N.N.N.N.N.N.N.N.N.N.N.N.N.N.N.N.N.N.N.N.< < < N.c.>.>.;.:.:.u.c.r.r.N.N.N.N.N.< < i H m 7 N.N.N.N.N.N.N.N.N.N.N.N.N.N.N.N.",
"N.N.N.N.N.N.N.N.N.N.N.N.N.N.N.N.N.N.N.N.N.N.N.B y G c.c. .} } } } t.b.y.r.r.N.N.N.N.N.i C E %.b N.N.N.N.N.N.N.N.N.N.N.N.N.N.N.N.",
"N.N.N.N.N.N.N.N.N.N.N.N.N.N.N.N.N.N.N.N.N.N.N.T v [ y.8.e = = = = ' c.m.y.r.r.N.N.N N N.1.1.1.1.N.N.N.N.N.N.N.N.N.N.N.N.N.N.N.N.",
"N.N.N.N.N.N.N.N.N.N.N.N.N.N.N.N.N.N.N.N.N.N.N.*.2.i.>.w = = = = = 9 I n.n.i.r.q.W N.N.W 3.1.1.1.N.N.N.N.N.N.N.N.N.N.N.N.N.N.N.N.",
"N.N.N.N.N.N.N.N.N.N.N.N.N.N.N.N.N.N.N.N.N.N.N.0.i.] f = = $ $ = = = e ' c.c.i.w.N.@.O.[ Q ^ 1.N.N.N.N.N.N.N.N.N.N.N.N.N.N.N.N.N.",
"N.N.N.N.N.N.N.N.N.N.N.N.N.N.N.N.N.N.N.N.N.N.N.y.>.f = ; = # O $ = = $ 9 ' t.b.y.N.f.d.+.U ! ~ N.N.N.N.N.N.N.N.N.N.N.N.N.N.N.N.N.",
"N.N.N.N.N.N.N.N.N.N.N.N.N.N.N.N.N.N.N.N.N.N.N.8.t = : , - # O O $ = = = = { v.x.h.d.f.f.N.N N N.N.N.N.N.N.N.N.N.N.N.N.N.N.N.N.N.",
"N.N.N.N.N.N.N.N.N.N.N.N.N.N.N.N.N.N.N.N.N.N.N.e t 1 : = = = # O O ; : - = _ j.j.f.f.f.N.N N.N.N.N.N.N.N.N.N.N.N.N.N.N.N.N.N.N.N.",
"N.N.N.N.N.N.N.N.N.N.N.N.N.N.N.N.N.N.N.N.N.N.; > , , , : : ; $ # O ; > t / X.f.f.f.j.k.N.N.N.N.N.N.N.N.N.N.N.N.N.N.N.N.N.N.N.N.N.",
"N.N.N.N.N.N.N.N.N.N.N.N.N.N.N.N.N.N.N.N.N.; > 1 1 1 , : ; = # # O ; d A o.s.f.f.h.k.N.N.N.N.N.N.N.N.N.N.N.N.N.N.N.N.N.N.N.N.N.N.",
"N.N.N.N.N.N.N.N.N.N.N.N.N.N.N.N.N.N.N.N.N.1 1 , , 1 : = + O O O O 9 A d.( s.f.g.$.N.N.N.N.N.N.N.N.N.N.N.N.N.N.N.N.N.N.N.N.N.N.N.",
"N.N.N.N.N.N.N.N.N.N.N.N.N.N.N.N.N.N.N.N.1 1 1 , 1 , , , = + O O O / o.( s.d.j.$.s N.N.N.N.N.N.N.N.N.N.N.N.N.N.N.N.N.N.N.N.N.N.N.",
"N.N.N.N.N.N.N.N.N.N.N.N.N.N.N.N.N.N.N.N.1 , 1 , : ; ; ; # + N.N./ ..a.s.d.j.#.S 8 = N.N.N.N.N.N.N.N.N.N.N.N.N.N.N.N.N.N.N.N.N.N.",
"N.N.N.N.N.N.N.N.N.N.N.N.N.N.N.N.N.N.N.N.1 > ; ; $ $ $ = + N.N.N.a.( a.f.j.#.K , = = = N.N.N.N.N.N.N.N.N.N.N.N.N.N.N.N.N.N.N.N.N.",
"N.N.N.N.N.N.N.N.N.N.N.N.N.N.N.N.N.N.N.N.N.# # # # # # = N.N.N.s.( a.f.g.l.S 1 , ; ; ; N.N.N.N.N.N.N.N.N.N.N.N.N.N.N.N.N.N.N.N.N.",
"N.N.N.N.N.N.N.N.N.N.N.N.N.N.N.N.N.N.N.N.N.5 5 5 5 5 5 N.N.g.a.( d.d.j.l.N.z x k 5 5 k N.N.N.N.N.N.N.N.N.N.N.N.N.N.N.N.N.N.N.N.N.",
"N.N.N.N.N.N.N.N.N.N.N.N.N.N.N.N.N.N.N.N.N.N.k 4 5 5 x N.N.( a.a.d.j.k.N.N.N.j 4 k x x N.N.N.N.N.N.N.N.N.N.N.N.N.N.N.N.N.N.N.N.N.",
"N.N.N.N.N.N.N.N.N.N.N.N.N.N.N.N.N.N.N.N.N.N.N.< x x x N.N.a.a.f.j.k.N.N.N.N.N.< k x x N.N.N.N.N.N.N.N.N.N.N.N.N.N.N.N.N.N.N.N.N.",
"N.N.N.N.N.N.N.N.N.N.N.N.N.N.N.N.N.N.N.N.N.N.N.< x x x N.N.f.f.g.l.N.N.N.N.N.N.< k x x N.N.N.N.N.N.N.N.N.N.N.N.N.N.N.N.N.N.N.N.N.",
"N.N.N.N.N.N.N.N.N.N.N.N.N.N.N.N.N.N.N.N.N.N.N.< k x x N.f.f.j.l.N.N.N.N.N.N.N.y x x x x N.N.N.N.N.N.N.N.N.N.N.N.N.N.N.N.N.N.N.N.",
"N.N.N.N.N.N.N.N.N.N.N.N.N.N.N.N.N.N.N.N.N.N.< k k x x N.k.k.k.N.N.N.N.N.N.N.N.y x x x x N.N.N.N.N.N.N.N.N.N.N.N.N.N.N.N.N.N.N.N.",
"N.N.N.N.N.N.N.N.N.N.N.N.N.N.N.N.N.N.N.N.N.< k x x x V N.z.z.N.N.N.N.N.N.N.N.< 4 x x x x N.N.N.N.N.N.N.N.N.N.N.N.N.N.N.N.N.N.N.N.",
"N.N.N.N.N.N.N.N.N.N.N.N.N.N.N.N.N.N.N.N.< k x x x x P z.z.N.N.N.N.N.N.N.N.< 4 x x x x x N.N.N.N.N.N.N.N.N.N.N.N.N.N.N.N.N.N.N.N.",
"N.N.N.N.N.N.N.N.N.N.N.N.N.N.N.N.N.N.N.x k x x x x N.N.N.N.N.N.N.N.N.N.N.x x x x x x x N.N.N.N.N.N.N.N.N.N.N.N.N.N.N.N.N.N.N.N.N.",
"N.N.N.N.N.N.N.N.N.N.N.N.N.N.N.N.N.N.N.N.N.N.N.N.N.N.N.N.N.N.N.N.N.N.N.N.N.N.N.N.N.N.N.N.N.N.N.N.N.N.N.N.N.N.N.N.N.N.N.N.N.N.N.N.",
"N.N.N.N.N.N.N.N.N.N.N.N.N.N.N.N.N.N.N.N.N.N.N.N.N.N.N.N.N.N.N.N.N.N.N.N.N.N.N.N.N.N.N.N.N.N.N.N.N.N.N.N.N.N.N.N.N.N.N.N.N.N.N.N.",
"N.N.N.N.N.N.N.N.N.N.N.N.N.N.N.N.N.N.N.N.N.N.N.N.N.N.N.N.N.N.N.N.N.N.N.N.N.N.N.N.N.N.N.N.N.N.N.N.N.N.N.N.N.N.N.N.N.N.N.N.N.N.N.N."
};
