/* XPM */
static char *f7ec102c610d414aa12ce4a6e4df8ea9I8ygF3YcOoDp2FZ7[] = {
/* columns rows colors chars-per-pixel */
"64 64 2 1 ",
"  c #AABACE",
". c #BCCBD5",
/* pixels */
"................................                                ",
"................................                                ",
"................................                                ",
"................................                                ",
"................................                                ",
".....                      .....     ......................     ",
".....                      .....     ......................     ",
".....                      .....     ......................     ",
".....                      .....     ......................     ",
".....                      .....     ......................     ",
".....                      .....     ......................     ",
".....                      .....     ......................     ",
".....                      .....     ......................     ",
".....                      .....     ......................     ",
".....                      .....     ......................     ",
".....                      .....     ......................     ",
".....                      .....     ......................     ",
".....                      .....     ......................     ",
".....                      .....     ......................     ",
".....                      .....     ......................     ",
".....                      .....     ......................     ",
".....                      .....     ......................     ",
".....                      .....     ......................     ",
".....                      .....     ......................     ",
".....                      .....     ......................     ",
".....                      .....     ......................     ",
".....                      .....     ......................     ",
"................................                                ",
"................................                                ",
"................................                                ",
"................................                                ",
"................................                                ",
"                                ................................",
"                                ................................",
"                                ................................",
"                                ................................",
"                                ................................",
"     ......................     .....                      .....",
"     ......................     .....                      .....",
"     ......................     .....                      .....",
"     ......................     .....                      .....",
"     ......................     .....                      .....",
"     ......................     .....                      .....",
"     ......................     .....                      .....",
"     ......................     .....                      .....",
"     ......................     .....                      .....",
"     ......................     .....                      .....",
"     ......................     .....                      .....",
"     ......................     .....                      .....",
"     ......................     .....                      .....",
"     ......................     .....                      .....",
"     ......................     .....                      .....",
"     ......................     .....                      .....",
"     ......................     .....                      .....",
"     ......................     .....                      .....",
"     ......................     .....                      .....",
"     ......................     .....                      .....",
"     ......................     .....                      .....",
"     ......................     .....                      .....",
"                                ................................",
"                                ................................",
"                                ................................",
"                                ................................",
"                                ................................"
};
