/* XPM */
static char *a11983610d5c4322d2bed5622f01f1c8mWoL1hsB2180zvX6[] = {
/* columns rows colors chars-per-pixel */
"64 64 2 1 ",
"  c #D5CC9E",
". c #D9D4A3",
/* pixels */
"             .................                         .......  ",
"              .................                         ....... ",
"               .................                         .......",
".               .................                         ......",
"..               .................                         .....",
"...               .................                         ....",
"....               .................                         ...",
".....               .................                         ..",
"......               .................                         .",
".......               .................                         ",
" .......               .................                        ",
"  .......               .................                       ",
"   .......               .................                      ",
"    .......               .................                     ",
"     .......               .................                    ",
"      .......               .................                   ",
"       .......               .................                  ",
"        .......               .................                 ",
"         .......               .................                ",
"          .......               .................               ",
"           .......               .................              ",
"            .......               .................             ",
"             .......               .................            ",
"              .......               .................           ",
"               .......               .................          ",
"                .......               .................         ",
"                 .......               .................        ",
"                  .......               .................       ",
"                   .......               .................      ",
"                    .......               .................     ",
"                     .......               .................    ",
"                      .......               .................   ",
"                       .......               .................  ",
"                        .......               ................. ",
"                         .......               .................",
".                         .......               ................",
"..                         .......               ...............",
"...                         .......               ..............",
"....                         .......               .............",
".....                         .......               ............",
"......                         .......               ...........",
".......                         .......               ..........",
"........                         .......               .........",
".........                         .......               ........",
"..........                         .......               .......",
"...........                         .......               ......",
"............                         .......               .....",
".............                         .......               ....",
"..............                         .......               ...",
"...............                         .......               ..",
"................                         .......               .",
".................                         .......               ",
" .................                         .......              ",
"  .................                         .......             ",
"   .................                         .......            ",
"    .................                         .......           ",
"     .................                         .......          ",
"      .................                         .......         ",
"       .................                         .......        ",
"        .................                         .......       ",
"         .................                         .......      ",
"          .................                         .......     ",
"           .................                         .......    ",
"            .................                         .......   "
};
